<svg xmlns="http://www.w3.org/2000/svg">
  <symbol id="calendar" viewBox="0 0 16 16">
    <path
      d="M14.857,16H1.143C0.512,16,0,15.487,0,14.857v-12c0-0.631,0.512-1.143,1.143-1.143h1.143v0.571C2.286,3.233,3.053,4,4,4 s1.714-0.767,1.714-1.714V1.714h4.572v0.571C10.286,3.233,11.054,4,12,4s1.714-0.767,1.714-1.714V1.714h1.144 c0.63,0,1.143,0.512,1.143,1.143v12C16,15.487,15.487,16,14.857,16z M14.857,5.714H1.143v9.143h13.714V5.714z M11.982,3.429 c-0.622,0-1.125-0.503-1.125-1.125V1.125C10.857,0.503,11.36,0,11.982,0c0.621,0,1.125,0.503,1.125,1.125v1.179 C13.107,2.925,12.604,3.429,11.982,3.429z M3.982,3.429c-0.622,0-1.125-0.503-1.125-1.125V1.125C2.857,0.503,3.36,0,3.982,0 c0.622,0,1.125,0.503,1.125,1.125v1.179C5.107,2.925,4.604,3.429,3.982,3.429z"
      fill="currentColor"/>
  </symbol>
  <symbol id="text" viewBox="0 0 16 16">
    <rect y="3.691" width="8.615" height="1.231" fill="currentColor"/>
    <rect width="8.615" height="1.23" fill="currentColor"/>
    <rect y="7.384" width="16" height="1.231" fill="currentColor"/>
    <rect y="11.075" width="16" height="1.233" fill="currentColor"/>
    <rect y="14.769" width="16" height="1.231" fill="currentColor"/>
  </symbol>
  <symbol id="maximize" viewBox="0 0 16 16">
    <path
      d="M14.484 12.83l-3.536-3.536-1.654 1.655 3.534 3.536L11.315 16H16v-4.684M6.704 5.054L3.18 1.534 4.668 0H0v4.667l1.53-1.484 3.524 3.52M6.703 10.946l-1.65-1.65-3.545 3.546L0 11.332V16h4.667l-1.51-1.51M11.333 0l1.51 1.508-3.547 3.546 1.65 1.65 3.545-3.546L16 4.668V0"
      fill="currentColor"/>
  </symbol>
  <symbol id="moon" viewBox="0 0 16 16">
    <path
      d="M14.502 14.087c-.018-.078-.08-.14-.158-.156-.256-.055-.512-.12-.76-.198-2.567-.806-4.553-2.72-5.448-5.253-.894-2.534-.55-5.27.942-7.51.146-.217.302-.43.467-.633.05-.062.06-.148.024-.22S9.46 0 9.38 0c-.866.01-1.726.165-2.55.457C2.67 1.925.48 6.504 1.95 10.663c1.468 4.16 6.046 6.348 10.206 4.88.827-.292 1.59-.712 2.273-1.248.062-.05.09-.13.072-.208z"
      fill="currentColor"/>
  </symbol>
  <symbol id="video" viewBox="0 0 16 16">
    <path
      d="M15.838,4.799L15.836,4.8c0,0-0.154-1.103-0.637-1.587c-0.607-0.637-1.291-0.641-1.602-0.678C11.359,2.372,8,2.372,8,2.372 H7.994c0,0-3.359,0-5.597,0.163C2.083,2.573,1.403,2.576,0.793,3.213C0.312,3.697,0.16,4.8,0.16,4.8S0,6.094,0,7.391v1.212 c0,1.295,0.159,2.592,0.159,2.592s0.156,1.103,0.634,1.588c0.609,0.637,1.409,0.615,1.766,0.684C3.841,13.589,8,13.626,8,13.626 s3.363-0.006,5.601-0.166c0.312-0.037,0.994-0.041,1.602-0.678c0.482-0.484,0.639-1.589,0.639-1.589S16,9.9,16,8.604V7.39 C15.996,6.096,15.838,4.799,15.838,4.799z M15,8.532c0,1.134-0.137,2.265-0.137,2.265s-0.137,0.965-0.561,1.389 c-0.529,0.557-1.128,0.561-1.401,0.594C10.943,12.92,8,12.924,8,12.924s-3.64-0.031-4.761-0.137 c-0.311-0.062-1.012-0.041-1.545-0.598c-0.418-0.428-0.555-1.393-0.555-1.393S1,9.664,1,8.532V7.468 c0-1.135,0.139-2.266,0.139-2.266s0.135-0.966,0.555-1.39C2.227,3.256,2.822,3.252,3.097,3.22c1.959-0.144,4.898-0.144,4.898-0.144 H8c0,0,2.939,0,4.898,0.144c0.273,0.032,0.871,0.036,1.4,0.593c0.421,0.424,0.558,1.39,0.558,1.39V5.201c0,0,0.14,1.135,0.144,2.268 V8.532z"
      fill="currentColor"/>
    <path
      d="M6.343 5.578v4.497l4.32-2.24"
      fill="currentColor"/>
  </symbol>
  <symbol id="twitter" viewBox="0 0 16 16">
    <path
      d="M16 3.54c-.588.262-1.223.437-1.884.515.678-.406 1.196-1.05 1.444-1.816-.635.374-1.338.65-2.083.796-.6-.638-1.453-1.034-2.397-1.034-1.812 0-3.28 1.47-3.28 3.28 0 .256.028.506.084.747C5.156 5.89 2.738 4.585 1.12 2.6.84 3.083.676 3.65.676 4.25c0 1.137.578 2.143 1.458 2.73-.538-.017-1.044-.167-1.487-.41v.04c0 1.592 1.13 2.92 2.633 3.22-.275.074-.566.115-.865.115-.212 0-.416-.02-.62-.06.42 1.303 1.63 2.254 3.066 2.28-1.124.882-2.537 1.407-4.076 1.407-.266 0-.525-.016-.784-.047C1.456 14.46 3.18 15 5.032 15c6.035 0 9.34-5 9.34-9.338 0-.144-.004-.284-.01-.425C15 4.777 15.558 4.2 16 3.54z"
      fill="currentColor"/>
  </symbol>
  <symbol id="people" viewBox="0 0 16 16">
    <path
      d="M10.706,11.939c-0.229-0.051-0.428-0.093-0.523-0.135c-0.729-0.316-1.177-0.799-1.336-1.435 c0.676-0.581,1.243-1.479,1.566-2.482c0.345-0.447,0.532-0.907,0.532-1.301c0-0.262-0.084-0.48-0.252-0.651 c-0.094-2.194-1.659-3.923-3.604-3.951L7.031,1.983c-1.909,0.011-3.482,1.693-3.62,3.851c-0.245,0.181-0.37,0.433-0.37,0.754 c0,0.463,0.262,1.018,0.72,1.526c0.317,0.87,0.809,1.635,1.394,2.17c-0.158,0.641-0.607,1.123-1.337,1.44 c-0.094,0.041-0.283,0.086-0.5,0.139C2.322,12.1,0.471,12.54,0.006,14.271c-0.028,0.104,0.035,0.211,0.139,0.239l13.657,0.007 c0.018,0,0.034-0.002,0.052-0.007c0.105-0.028,0.167-0.135,0.138-0.24C13.533,12.552,11.693,12.152,10.706,11.939z M0.458,14.145 c0.5-1.318,2.021-1.681,2.95-1.902c0.246-0.058,0.44-0.104,0.565-0.158c1.117-0.484,1.48-1.265,1.589-1.833 c0.013-0.068-0.012-0.139-0.064-0.186c-0.582-0.502-1.072-1.255-1.381-2.12C4.109,7.919,4.095,7.896,4.077,7.877 c-0.409-0.444-0.644-0.915-0.644-1.29c0-0.219,0.083-0.366,0.269-0.477c0.057-0.034,0.093-0.095,0.095-0.16 c0.087-1.995,1.508-3.565,3.251-3.576c0.001,0,0.04,0.003,0.042,0.003c1.752,0.024,3.164,1.629,3.214,3.652 c0.002,0.057,0.027,0.108,0.069,0.145c0.124,0.104,0.181,0.235,0.181,0.414c0,0.313-0.167,0.699-0.471,1.085 c-0.015,0.02-0.024,0.04-0.032,0.062c-0.313,0.994-0.876,1.871-1.542,2.408c-0.057,0.045-0.083,0.117-0.07,0.188 c0.109,0.567,0.473,1.348,1.589,1.832c0.132,0.058,0.337,0.103,0.596,0.158c0.919,0.198,2.42,0.524,2.918,1.817 C13.547,14.16,0.451,14.164,0.458,14.145z"
      fill="currentColor"/>
    <path
      d="M12.707,11.439c-0.229-0.051-0.428-0.093-0.523-0.135c-0.729-0.316-1.177-0.799-1.337-1.435 c0.677-0.581,1.243-1.479,1.566-2.482c0.345-0.447,0.532-0.907,0.532-1.301c0-0.262-0.084-0.48-0.252-0.651 C12.6,3.241,11.034,1.513,9.09,1.484L9.032,1.483C8.649,1.485,8.285,1.567,7.94,1.699c0.218,0.055,0.43,0.129,0.631,0.227 c0.155-0.031,0.313-0.051,0.477-0.052c0.002,0,0.04,0.003,0.042,0.003c1.752,0.024,3.164,1.629,3.214,3.652 c0.002,0.057,0.027,0.108,0.069,0.145c0.124,0.104,0.181,0.235,0.181,0.414c0,0.313-0.167,0.699-0.471,1.085 c-0.015,0.02-0.024,0.04-0.032,0.062c-0.313,0.994-0.876,1.871-1.542,2.408c-0.058,0.045-0.084,0.117-0.07,0.188 c0.108,0.567,0.473,1.348,1.589,1.832c0.132,0.058,0.337,0.103,0.596,0.158c0.919,0.198,2.42,0.524,2.918,1.817 c0.001,0.004-0.528,0.008-1.368,0.01c0.062,0.111,0.107,0.24,0.156,0.366l1.475,0.001c0.018,0,0.034-0.002,0.052-0.007 c0.105-0.028,0.167-0.135,0.138-0.24C15.534,12.052,13.694,11.652,12.707,11.439z"
      fill="currentColor"/>
  </symbol>
  <symbol id="globe" viewBox="0 0 16 16">
    <path
      d="M15.997 8c0-4.34-3.478-7.882-7.79-7.992-.005 0-.01-.005-.01-.005v.005C8.134.008 8.07 0 8.002 0c-4.412 0-8 3.588-8 8 0 4.232 3.31 7.7 7.473 7.974.005.004.013.004.018.007l.003-.006c.17.006.34.026.51.026.17 0 .336-.02.508-.026v.004s.005 0 .005-.004c4.163-.267 7.477-3.742 7.477-7.975zM12.7 7.88c-.018-1.21-.232-2.367-.598-3.413.587-.35 1.128-.78 1.613-1.277 1.07 1.272 1.724 2.91 1.756 4.694H12.7V7.88zm-.52 0H8.26V5.594c1.185-.04 2.346-.348 3.39-.88.324.973.52 2.045.533 3.164zM8.26 5.077V.598c1.387.614 2.522 1.934 3.203 3.63-.98.516-2.075.81-3.202.85zm-.522 0c-1.127-.04-2.22-.334-3.203-.85C5.22 2.535 6.348 1.215 7.736.6V5.08zm0 .52v2.286H3.812c.018-1.12.21-2.192.538-3.16 1.047.528 2.2.832 3.386.874zm-4.44 2.28H.523c.03-1.783.683-3.416 1.755-4.693.486.5 1.028.928 1.613 1.282-.366 1.05-.58 2.203-.598 3.412zM3.3 8.4c.034 1.113.227 2.183.554 3.155-.57.345-1.1.77-1.575 1.258C1.26 11.608.626 10.073.535 8.4H3.3zm.516 0h3.92v2.003c-1.204.038-2.37.35-3.424.898-.29-.897-.46-1.876-.496-2.9zm3.92 2.524v4.545c-.042 0-.084-.004-.127-.01-1.368-.66-2.46-1.98-3.12-3.67.997-.524 2.106-.827 3.246-.866zm.522 0c1.048.045 2.173.38 3.216.935-.662 1.65-1.747 2.954-3.1 3.6-.04 0-.078.007-.122.007v-4.542h.006zm0-.526V8.4h3.922c-.036 1.045-.215 2.05-.52 2.96-1.01-.53-2.17-.914-3.402-.962zM12.695 8.4h2.757c-.088 1.674-.724 3.208-1.74 4.416-.442-.414-.983-.83-1.597-1.195.346-.995.548-2.085.58-3.22zm.675-5.594c-.434.453-.93.84-1.45 1.166-.582-1.4-1.453-2.562-2.516-3.318 1.535.294 2.91 1.063 3.966 2.152zM6.61.653C5.54 1.41 4.665 2.57 4.084 3.973c-.53-.327-1.016-.72-1.456-1.172C3.68 1.718 5.06.95 6.61.654zM2.63 13.198c.426-.443.9-.822 1.413-1.142.538 1.34 1.34 2.467 2.336 3.24-1.457-.322-2.752-1.07-3.75-2.098zm6.983 2.105c.98-.763 1.776-1.867 2.313-3.184.512.31.997.674 1.43 1.084-1 1.03-2.293 1.773-3.743 2.1z"
      fill="currentColor"/>
  </symbol>
  <symbol id="code" viewBox="0 0 16 16">
    <path
      d="M5 11.838l-.437.438c-.058.058-.125.087-.2.087s-.144-.03-.202-.087L.088 8.2C.03 8.144 0 8.076 0 8c0-.076.03-.143.087-.2L4.16 3.723c.06-.058.127-.087.203-.087s.143.03.2.087L5 4.162c.06.058.088.125.088.2s-.03.143-.088.2L1.564 8 5 11.437c.058.058.087.125.087.2 0 .076-.028.143-.087.2zm5.168-9.33l-3.262 11.29c-.023.074-.068.13-.135.17-.066.038-.134.045-.204.02l-.542-.147c-.076-.023-.133-.068-.17-.135-.038-.066-.045-.14-.022-.214l3.26-11.288c.024-.076.07-.132.136-.17.067-.038.135-.046.206-.022l.542.15c.075.022.132.067.17.135.04.066.045.137.022.213zM15.912 8.2l-4.074 4.076c-.058.058-.125.087-.2.087-.076 0-.143-.03-.2-.087L11 11.838c-.06-.058-.088-.125-.088-.2 0-.076.03-.144.088-.2L14.436 8 11 4.563c-.06-.058-.088-.125-.088-.2s.03-.143.088-.2l.437-.44c.06-.057.125-.086.2-.086.076 0 .144.03.2.087L15.913 7.8c.06.057.088.124.088.2 0 .075-.03.143-.088.2z"
      fill="currentColor"/>
  </symbol>
  <symbol id="document" viewBox="0 0 16 16">
    <path
      d="M9.777 0h.297l3.555 4.148V14.82c0 .647-.53 1.18-1.185 1.18h-8.89c-.657 0-1.185-.532-1.185-1.19V1.19C2.37.533 2.902 0 3.558 0h6.22zM9.48.593H3.553c-.326 0-.59.27-.59.59v13.634c0 .326.27.59.592.59h8.888c.328 0 .594-.264.594-.59V4.74h-2.37c-.655 0-1.187-.526-1.187-1.19V.594zm.594.296v2.66c0 .33.268.598.59.598h2.195L10.073.888zM4.148 4.147v.593h4.148V4.15H4.148zm0-1.777v.593h4.148V2.37H4.148zm0 3.556v.593h7.704v-.594H4.148zm0 1.778v.593h7.704v-.593H4.148zm0 1.777v.594h7.704V9.48H4.148zm0 1.78v.592h7.704v-.593H4.148zm0 1.777v.593h7.704v-.593H4.148z"
      fill="currentColor"/>
  </symbol>
  <symbol id="presentation" viewBox="0 0 16 16">
    <path
      d="M16,1.067H8.266V0.267C8.266,0.119,8.147,0,8,0C7.852,0,7.733,0.119,7.733,0.267v0.801H0v11.2 h7.355l-3.278,3.276c-0.104,0.104-0.104,0.273,0,0.378C4.13,15.974,4.198,16,4.266,16c0.068,0,0.137-0.026,0.188-0.078 l3.278-3.278v2.556c0,0.146,0.119,0.267,0.267,0.267c0.147,0,0.266-0.12,0.266-0.267v-2.556l3.279,3.278 C11.596,15.974,11.664,16,11.732,16s0.137-0.026,0.188-0.078c0.104-0.104,0.104-0.273,0-0.378l-3.276-3.276H16V1.067L16,1.067z M0.533,1.6h14.933v10.133H0.533V1.6z"
      fill="currentColor"/>
    <circle cx="2.5" cy="10" r="1" fill="currentColor"/>
    <circle cx="10" cy="7.724" r="1" fill="currentColor"/>
    <circle cx="6" cy="6" r="1" fill="currentColor"/>
    <circle cx="13.5" cy="4" r="1" fill="currentColor"/>
    <polygon points="2.782,10.247 2.218,9.753 5.901,5.543 9.907,7.357 13.224,3.747 13.776,4.253 10.093,8.265 6.099,6.457" fill="currentColor"/>
  </symbol>
  <symbol id="github" viewBox="0 0 16 16">
    <path
      d="M8 .198c-4.418 0-8 3.582-8 8 0 3.534 2.292 6.532 5.47 7.59.4.075.548-.173.548-.384 0-.19-.008-.82-.01-1.49-2.227.484-2.696-.943-2.696-.943-.364-.925-.888-1.17-.888-1.17-.725-.497.055-.485.055-.485.802.056 1.225.824 1.225.824.714 1.22 1.872.867 2.328.663.072-.517.28-.87.508-1.07-1.776-.2-3.644-.888-3.644-3.954 0-.874.313-1.588.824-2.148-.082-.202-.357-1.015.077-2.116 0 0 .672-.216 2.2.82.64-.177 1.323-.267 2.003-.27.68.003 1.365.093 2.004.27 1.527-1.036 2.197-.82 2.197-.82.437 1.102.164 1.916.08 2.116.514.56.823 1.274.823 2.147 0 3.072-1.872 3.748-3.652 3.947.288.248.543.734.543 1.48 0 1.07-.01 1.93-.01 2.195 0 .213.146.462.552.384C13.71 14.726 16 11.73 16 8.196c0-4.418-3.58-8-8-8v.002z"
      fill="currentColor"/>
  </symbol>
  <symbol id="link" viewBox="0 0 16 16">
    <path
      d="M11.636 0c.572 0 1.124.11 1.656.325.53.216 1.008.534 1.43.954.42.42.738.895.954 1.428s.322 1.084.322 1.656c0 .568-.107 1.12-.325 1.656-.218.536-.535 1.012-.952 1.43l-2.18 2.18c-.043.042-.105.1-.19.176-.404.36-.857.633-1.357.82-.5.188-1.012.28-1.538.28-.663 0-1.29-.14-1.88-.424-.444-.208-.846-.492-1.205-.852s-.644-.76-.852-1.205C5.802 8.14 6.145 8 6.546 8c.14 0 .282.02.426.06.247.4.568.72.966.967.466.284.972.427 1.518.427.378 0 .745-.072 1.102-.216.356-.145.674-.356.955-.637l2.182-2.18c.28-.28.492-.6.637-.956.144-.356.216-.724.216-1.103 0-.377-.072-.745-.216-1.1-.145-.357-.356-.676-.637-.956s-.6-.492-.955-.636-.724-.216-1.103-.216-.746.072-1.102.216c-.356.144-.675.356-.955.636l-1.53 1.53c-.485-.132-.987-.198-1.505-.198-.083 0-.2.004-.352.012.076-.083.134-.146.176-.188l2.18-2.182C8.97.862 9.445.545 9.98.326 10.517.108 11.068 0 11.636 0zm-5.09 5.09c.662 0 1.29.143 1.88.427.443.21.845.493 1.205.853.36.36.645.76.854 1.204-.285.284-.628.426-1.03.426-.14 0-.282-.02-.426-.062-.246-.398-.568-.72-.966-.967-.465-.282-.97-.424-1.516-.424-.378 0-.746.072-1.103.215-.356.145-.674.357-.955.637L2.308 9.58c-.28.28-.493.6-.638.954-.144.355-.216.724-.216 1.102 0 .38.072.747.216 1.104.145.355.356.675.637.954.28.28.6.492.955.637.357.145.724.217 1.103.217s.746-.072 1.103-.216c.356-.144.675-.355.955-.636l1.528-1.528c.485.133.987.198 1.506.198.083 0 .2-.003.352-.012-.075.084-.133.146-.175.188L7.45 14.722c-.42.42-.896.738-1.43.955-.532.216-1.083.323-1.655.323-.568 0-1.12-.108-1.655-.327-.536-.218-1.012-.534-1.43-.95-.42-.422-.737-.898-.954-1.43s-.324-1.085-.324-1.657c0-.57.108-1.122.324-1.654s.534-1.01.955-1.43L3.463 6.37c.042-.042.104-.1.188-.176.404-.36.857-.633 1.357-.82.5-.188 1.013-.282 1.54-.283z"
      fill="currentColor"/>
  </symbol>
  <symbol id="harvard-hms" viewBox="0 0 190 48">
    <path
      d="M177.24 6.284c-1.87 0-4.34.186-5.214.186-.516 0-2.484-.07-3.076-.07v.486c1.035.194 1.598.565 1.598 1.513v13.734c0 .975-.576 1.396-1.643 1.583v.497c.592 0 2.412-.082 2.953-.082.865 0 3.156.15 5.033.15 6.522 0 10.515-3.87 10.515-9.09 0-5.377-3.83-8.907-10.166-8.908zm-77.202.047c-.97 0-3.438.14-4.31.14-.534 0-2.403-.07-3.003-.07v.486c1.123.188 1.568.72 1.568 1.56v13.643c0 .953-.578 1.44-1.568 1.628v.497c.592 0 2.498-.082 2.973-.082.547 0 2.482.082 3.074.082v-.497c-1.064-.228-1.64-.714-1.64-1.63v-6.11c.302.03.554.07.825.115 1.36.22 2.11.844 2.723 1.63.975 1.233 2.736 3.733 3.697 4.91 1.125 1.356 2.262 1.87 3.727 1.87.666 0 1.55-.096 2.1-.22v-.38c-1.14-.053-2.232-1.21-3.062-2.23-.842-1.012-2.97-3.98-3.725-4.863-.62-.722-1.23-1.074-1.23-1.074 2.708-.66 4.483-2.256 4.483-4.633 0-3.006-2.38-4.772-6.632-4.772zm56.086 0c-.977 0-3.44.14-4.31.14-.532 0-2.397-.07-2.995-.07v.486c1.122.188 1.57.72 1.57 1.56v13.643c0 .953-.58 1.44-1.57 1.628v.497c.59 0 2.48-.082 2.956-.082.555 0 2.498.082 3.098.082v-.497c-1.072-.228-1.656-.714-1.656-1.63v-6.11c.303.03.56.07.828.115 1.36.22 2.107.844 2.723 1.63.974 1.233 2.657 3.733 3.628 4.91 1.115 1.356 2.268 1.87 3.72 1.87.68 0 1.565-.096 2.112-.22v-.38c-1.145-.053-2.22-1.21-3.06-2.23-.835-1.012-2.913-3.98-3.667-4.863-.62-.722-1.23-1.074-1.23-1.074 2.708-.66 4.48-2.256 4.48-4.633 0-3.006-2.38-4.772-6.63-4.772zm-76.322.012s-.296 1.156-.533 1.723l-5.68 13.688c-.414.975-1.034 1.698-2.157 1.964v.45l2.576-.035c.37 0 1.914.035 2.51.035v-.45c-1-.266-1.264-.657-1.264-1.144 0-.318.162-.807.29-1.144l1.18-2.924h6.654l1.273 2.91c.176.43.332.844.332 1.214 0 .427-.275.872-1.146 1.086l-.015.45c.664 0 2.586-.035 3.05-.035.47 0 2.48.036 3.128.036v-.45c-1.188-.3-1.662-.98-2.084-1.93l-6.01-13.71c-.238-.573-.52-1.734-.52-1.734h-1.588zm56.36 0s-.288 1.156-.524 1.723l-5.693 13.688c-.406.975-1.02 1.698-2.137 1.964l-.008.45 2.633-.035c.36 0 1.86.035 2.445.035v-.45c-.99-.266-1.248-.657-1.248-1.144 0-.318.14-.807.28-1.144l1.17-2.924h6.667l1.27 2.91c.187.43.327.844.327 1.214 0 .427-.266.872-1.14 1.086l-.013.45c.65 0 2.587-.035 3.046-.035s2.482.036 3.135.036v-.45c-1.196-.3-1.655-.98-2.077-1.93l-6.01-13.712c-.238-.572-.533-1.733-.533-1.733h-1.59v.002zM49.7 6.4v.485c.874.228 1.42.61 1.42 1.513v13.806c0 .946-.588 1.325-1.42 1.513v.45c.43 0 2.32-.035 2.774-.035.532 0 2.532.035 2.968.035v-.45c-.872-.228-1.456-.566-1.456-1.513v-6.527h10.295v6.527c0 .946-.577 1.325-1.413 1.513v.45c.436 0 2.392-.035 2.925-.035.45 0 2.384.035 2.82.035v-.45c-.876-.228-1.467-.604-1.467-1.513V8.398c0-.94.63-1.318 1.467-1.513V6.4c-.436 0-2.37.07-2.82.07-.533 0-2.49-.07-2.925-.07v.485c.873.194 1.413.573 1.413 1.513v5.766H53.988V8.398c0-.94.625-1.318 1.456-1.513V6.4c-.436 0-2.436.07-2.968.07-.455 0-2.344-.07-2.773-.07zm59.99.035v.497c1.014.228 1.61.858 2.004 1.722l7.01 15.64h1.346l6.38-15.062c.6-1.41 1.265-2.007 2.345-2.3v-.497c-.623 0-2.293.08-2.693.08-.443 0-1.84-.08-2.41-.08v.497c.71.143 1.23.522 1.23 1.074 0 .5-.237 1.154-.585 2l-4.333 10.442-4.594-10.433c-.486-1.085-.752-1.657-.752-2.08 0-.583.665-.893 1.235-1.004v-.495c-.643 0-2.535.08-2.98.08-.473 0-2.574-.08-3.203-.08zm-10.49 1.028c2.922 0 4.533 1.474 4.533 3.882 0 1.688-1.05 3.604-4.387 3.604-.818 0-1.648-.033-2.217-.105V7.647c.607-.11 1.48-.184 2.072-.184zm56.1 0c2.92 0 4.52 1.474 4.52 3.882 0 1.688-1.052 3.604-4.388 3.604-.818 0-1.648-.033-2.217-.105V7.647c.606-.11 1.487-.184 2.084-.184zm21.093 0c4.977 0 7.89 3.25 7.89 7.88 0 4.46-2.772 7.657-8.09 7.657-.93 0-2.128-.074-2.765-.185V7.647c.682-.116 1.95-.184 2.965-.184zm-96.46 3.015l2.826 6.597h-5.47l2.645-6.597zm56.366 0l2.817 6.597h-5.455l2.64-6.597z"
      fill="currentColor"/>
    <path
      d="M2.912 16.25V1H41.08s-.007 2.272-.007 15.35C41.073 35.673 21.83 47 21.83 47S2.915 35.108 2.915 16.25H2.91z"
      fill="none"
      stroke-width=".924"
      stroke="currentColor"/>
    <path
      d="M128.286 32.288c-1.877 0-3.09.972-3.09 2.542 0 1.767 1.768 2.415 2.633 2.84 1.167.576 2.16 1.03 2.16 2.012 0 .94-.77 1.537-1.976 1.537-.547 0-1.22-.15-1.65-.452-.406-.273-.71-.75-.842-1.26h-.25l.014 1.918c.68.085 1.45.44 2.742.44 2.15 0 3.336-1.08 3.336-2.588 0-1.598-1.39-2.25-2.664-2.807-1.05-.46-2.172-1.04-2.172-2.09 0-.74.516-1.445 1.744-1.445 1.088 0 2.092.388 2.426 1.49h.252l.02-1.87c-.835.04-1.44-.267-2.684-.267zM95.74 32.3c-2.882 0-4.864 2.02-4.864 4.83 0 2.65 1.553 4.736 4.932 4.736 1.62 0 2.582-.54 3.262-.463l.102-2.044h-.258c-.46 1.315-1.516 1.822-2.957 1.822-2.56 0-3.477-2.27-3.477-4.1 0-2.234 1.148-4.102 3.27-4.102 1.264 0 2.477.624 2.994 1.826h.266l-.08-2.046c-.896.05-1.77-.46-3.19-.46zm42.882 0c-2.88 0-4.863 2.02-4.863 4.83 0 2.65 1.567 4.736 4.938 4.736 1.61 0 2.586-.54 3.258-.463l.098-2.044h-.258c-.46 1.315-1.51 1.822-2.957 1.822-2.554 0-3.478-2.27-3.478-4.1 0-2.234 1.146-4.102 3.268-4.102 1.25 0 2.477.624 2.996 1.826h.266l-.096-2.046c-.887.05-1.754-.46-3.174-.46zm22.787 0c-2.892 0-4.73 2.17-4.73 4.817 0 2.664 1.84 4.75 4.73 4.75 2.884 0 4.73-2.108 4.73-4.75 0-2.66-1.847-4.817-4.73-4.817zm11.555 0c-2.89 0-4.725 2.17-4.725 4.817 0 2.664 1.834 4.75 4.725 4.75 2.883 0 4.725-2.108 4.725-4.75 0-2.66-1.842-4.817-4.725-4.817zm-102.42.093c-.177.07-.5.08-.673.08h-5.785v.267c.577.097.817.372.817.81v7.023c0 .49-.307.747-.817.843v.255c.292 0 1.297-.046 1.57-.046h2.92c.995 0 1.52.002 2.403.08l.256-1.903-.256-.06c-.292.695-.63 1.18-1.81 1.18H66.38V37.2h2c.272 0 .62.03.76.068.423.104.585.387.707.75h.255c0-.307-.026-.977-.026-1.166 0-.188.006-.812.025-1.097h-.255c-.08.37-.277.613-.706.703-.147.04-.484.06-.76.06h-2V33.2h2.45c1.134 0 1.45.467 1.663 1.053h.256l.033-1.86h-.24zm7.393.01c-.97 0-2.174.104-2.624.104-.27 0-1.287-.045-1.594-.045v.255c.53.098.83.292.83.784v7.082c0 .51-.297.723-.853.82v.256c.307 0 1.242-.035 1.524-.035.448 0 1.564.08 2.532.08 3.357 0 5.406-2.003 5.406-4.702 0-2.777-1.967-4.596-5.22-4.596zm26.75.024s-.14.597-.266.89l-2.928 7.07c-.223.506-.533.88-1.11 1.017l-.015.244 1.358-.024c.193 0 .963.024 1.266.024l.006-.245c-.516-.137-.648-.34-.648-.59 0-.164.08-.415.154-.59l.6-1.51h3.445l.665 1.5c.096.22.164.436.164.625 0 .225-.15.447-.593.564l-.016.244c.343 0 1.333-.024 1.57-.024s1.286.024 1.616.024l.008-.244c-.613-.155-.842-.5-1.07-.993l-3.107-7.095c-.125-.293-.27-.89-.27-.89h-.83v.002zm39.953.035v.255c.45.116.74.316.74.784v7.115c0 .49-.31.69-.74.788v.244c.224 0 1.228-.024 1.466-.024.273 0 1.31.024 1.52.024v-.244c-.442-.117-.745-.3-.745-.788v-3.36h5.265v3.36c0 .49-.295.69-.723.788v.244c.23 0 1.232-.024 1.514-.024.23 0 1.258.024 1.48.024v-.244c-.452-.117-.77-.314-.77-.788V33.5c0-.484.325-.686.77-.783v-.255c-.222 0-1.25.045-1.48.045-.28 0-1.285-.045-1.514-.045v.255c.45.098.723.3.723.784v2.98h-5.264V33.5c0-.484.32-.686.747-.783v-.255c-.213 0-1.248.045-1.52.045-.24 0-1.243-.045-1.466-.045zm-59.31.012v.255c.548.114.83.365.83.842v7c0 .492-.267.74-.83.844v.255c.306 0 1.362-.046 1.606-.046.287 0 1.266.047 1.576.047v-.254c-.562-.114-.838-.374-.838-.843v-7c0-.494.29-.73.838-.844v-.256c-.31 0-1.334.033-1.576.033-.287 0-1.3-.033-1.605-.033zm26.366 0v.255c.55.12.828.365.828.842v7c0 .492-.273.74-.828.844v.255c.303 0 1.354-.046 1.598-.046h2.95c.99 0 1.524.002 2.403.08l.25-1.903-.25-.06c-.297.695-.645 1.18-1.826 1.18h-2.786v-7.348c0-.493.287-.72.834-.843v-.256c-.303 0-1.322.033-1.574.033-.282 0-1.295-.033-1.598-.033zm68.13 0v.255c.556.12.837.365.837.842v7c0 .492-.268.74-.838.844v.255c.318 0 1.377-.046 1.62-.046h2.942c.992 0 1.516.002 2.396.08l.25-1.903-.25-.06c-.297.695-.637 1.18-1.818 1.18h-2.78v-7.348c0-.493.282-.72.83-.843v-.256c-.313 0-1.327.033-1.57.033-.288 0-1.316-.033-1.62-.033zm-129.398.01v.255c.54.09.8.365.76.808l-.52 6.828c-.052.54-.34.925-.924 1.062v.232l1.308-.022c.185 0 .976.022 1.28.022v-.232c-.615-.17-.78-.522-.763-.936l.39-6.064 3.132 7.243h.532l3.165-7.266.394 6.088c.022.413-.14.765-.754.936v.232c.303 0 1.39-.022 1.586-.022l1.582.022v-.232c-.584-.137-.87-.47-.924-1.062l-.485-6.828c-.038-.454.177-.692.724-.81v-.254c-.367 0-.98.022-1.202.022-.208 0-.654-.022-.957-.022l-3.04 7.06-3.016-7.06c-.29 0-.78.022-.992.022-.216 0-.922-.022-1.28-.022zm110.973.486c2.16 0 3.106 2.012 3.106 4.147 0 2.13-.947 4.08-3.105 4.08-2.15 0-3.118-1.95-3.118-4.08 0-2.136.968-4.147 3.12-4.147zm11.558 0c2.15 0 3.105 2.012 3.105 4.147 0 2.13-.955 4.08-3.105 4.08-2.152 0-3.11-1.95-3.11-4.08-.002-2.136.957-4.147 3.11-4.147zm-95.47.047c2.572 0 4.08 1.67 4.08 4.054 0 2.416-1.435 3.966-4.17 3.966-.488 0-1.042-.04-1.375-.094V33.11c.352-.06.947-.093 1.464-.093zm27.282 1.536l1.463 3.41H103.4l1.37-3.41zM23.404 18.612c.123-.15.208-.347.208-.54-.027-.15-.236-.197-.333-.126-.125.13-.218.354-.167.582.052.122.168.162.29.084zM20.91 21.77c.65-.272.654-1.02 1.08-1.495l.043-.416c-.052-.08-.15-.15-.25-.126-.2.326-.524.642-.622 1.04-.225.252-.303-.317-.58-.167-.1.272-.027.642 0 .914.018.174.155.276.33.25zM21.95 17.988c.176-.026.293-.157.25-.332-.204-.222-.435-.474-.708-.623-.064-.037-.136-.09-.208-.084-.072.006-.155.062-.208.124-.045.22-.187.495.04.665.223.227.536.274.834.248z"
      fill="currentColor"/>
    <path
      d="M33.5 20.152c.112.035.218.068.31.068.083 0 .178-.022.25-.19.08-.36-.126-.623-.343-.9-.078-.1-.158-.2-.224-.31l-.02-.028.014-.032c.29-.745.075-1.606-.533-2.144-.164-.096-.43-.22-.72-.22-.075 0-.148.01-.22.027-.105.15-.03.266.108.45.093.12.188.25.2.405.1 1.143-.842 1.613-1.672 2.028-.257.128-.5.25-.71.386-3.428 1.72-3.902 3.342-3.96 4.412.024 1.172.5 2.27 1.378 3.177.103.175.21.337.315.494.406.61.826 1.243.597 2.047-.19.448-.71.5-1.087.5-1.468-.103-2.303-1.65-2.913-2.783l-.095-.175c-.043-.097-.085-.188-.128-.278-.167-.354-.338-.72-.38-1.15l-.004-.036.025-.022c.1-.09.225-.06.31-.01.122.11.185.256.246.395.104.238.176.383.368.383.01 0 .022 0 .034-.002.31-.46.097-1.013-.092-1.5l-.033-.085c-.116-.2-.3-.365-.497-.54-.222-.198-.452-.403-.58-.683l-.005-.024c-.017-.242.173-.294.312-.33.143-.04.227-.067.24-.186-.184-.6-.235-1.27-.148-1.945.054-.156.17-.23.275-.294.135-.083.22-.142.222-.286-.18-.652-.172-1.312-.148-1.934.024-.14.073-.272.12-.4.1-.272.194-.53.075-.786-.244-.086-.264-.293-.28-.46-.018-.18-.035-.283-.182-.332-.614-.003-1.12-.236-1.606-.463-.197-.092-.4-.186-.61-.264-.048-.012-.103-.02-.16-.02-.167 0-.323.064-.474.126-.087.036-.177.073-.27.098-.105.02-.208.038-.31.055-.37.06-.717.115-.956.373-.172.207-.167.435-.16.724 0 .058.003.117.003.178l-.003.02c-.04.13-.12.157-.18.157-.072 0-.14-.04-.203-.074-.028-.016-.057-.032-.072-.037l-.017-.007c-.368-.212-.524-.605-.408-1.027.037-.144-.02-.29-.153-.4-.22-.147-.53-.2-.755-.114-.254.09-.365.35-.473.6-.027.06-.054.123-.082.182-.023.237.033.513.14.69.267.276.596.46.946.653.266.148.54.3.787.504l.017.014.006.02c.104.322-.09.633-.298.896 0 .082.057.127.146.19.096.068.214.152.18.32l-.01.04-.04.01c-.424.11-.848.023-1.16-.235-.084-.072-.142-.17-.197-.266-.09-.152-.174-.296-.35-.323-.146 0-.217.145-.306.365-.03.075-.06.146-.096.205-.028.07-.04.172-.05.28-.02.18-.043.385-.183.51l-.023.02-.257-.03c-.963-.327-1.875-.83-2.884-1.584-.417-.323-.743-.767-1.057-1.195-.084-.116-.17-.23-.254-.344l-.01-.02-.09-.308c-.15-.552-.322-1.178-.95-1.337-.18.018-.33.047-.347.183l-.064.313h-.056c-.164 0-.327-.045-.484-.09-.24-.063-.498-.12-.713-.044-.163.107-.358.247-.48.43-.004.174.092.22.257.283.133.05.3.115.34.312 0 .256.16.473.298.664.033.046.065.09.092.13l.025.037-.023.038c-.057.095-.136.17-.212.24-.074.068-.143.133-.19.213l-.232.586c.086.173.193.374.39.405.186-.074.402-.04.597.005.138.032.28.063.43.048h.044c.047 0 .102-.008.16-.016.062-.01.127-.02.19-.02.187 0 .29.096.308.283.092.235.05.448.01.653-.015.073-.03.146-.037.22l-.012.032c-.314.46-.748.832-1.253 1.075-.1.065-.11.243-.066.38.067.087.178.127.348.127.097 0 .2-.014.3-.025.046-.006.09-.012.133-.016.27-.014.51-.103.744-.19.213-.078.433-.16.677-.186l.047-.004.022.043c.073.147.273.51.54.642.015.002.042.006.068.006.116 0 .205-.075.298-.154.1-.086.215-.184.373-.184.05 0 .103.01.157.03l.02.01c.185.147.245.355.302.556.05.178.1.346.23.478l.018.017.002.026c.018.177-.113.232-.2.27-.032.013-.06.024-.085.04l-.017.01c-.167.058-.358.073-.542.087-.295.023-.576.045-.76.23-.03.16.128.3.24.353.313.172.716.233 1.105.293l.173.025c.146.02.346.004.527-.013.237-.023.49-.035.674.014l.09.024-.194.302-1.22.824c-.235.1-.466.175-.69.247-.344.112-.67.22-.964.38-.09.024-.167.036-.24.036-.332 0-.58-.2-.82-.396-.24-.193-.47-.377-.767-.354-.262 0-.452.074-.66.257-.134.135-.183.363-.128.608.03.062.104.087.188.116.102.037.243.087.243.27-.014.37-.18.684-.34.99-.154.292-.314.594-.335.942-.024.154.02.342.178.405.116.06.27.02.353-.063.047-.047.078-.103.11-.162.062-.114.133-.244.325-.28h.02c.133.015.243.022.34.022.355 0 .6-.088.775-.277l.017-.02.024-.003c.183-.03.377.15.377.32 0 .19.01.327.123.38h.02c.487 0 .76-.46 1.003-.868.035-.06.07-.116.103-.17l.015-.026.03-.006c.072-.014.147-.038.225-.063.125-.042.256-.085.388-.085.104 0 .197.026.282.082l.023.015.006.026c.07.288-.046.52-.158.744-.066.132-.128.257-.156.394.02.065.11.135.205.16.602-.085.99-.587 1.367-1.07.067-.087.133-.172.2-.255l.005-.015c.07-.15.168-.36.425-.36l.02.003c.054.017.106.025.154.025.237 0 .383-.205.538-.422.096-.134.195-.272.32-.363l.02-.014h.222l.015.05c.03.1.012.184-.003.26-.015.068-.027.128-.003.196.123.13.287.067.453-.012.076-.035.154-.072.233-.09l.543-.333.03.01c.567.176 1.17.32 1.75.456l.166.04c.35.13.312.406.282.628-.024.177-.047.342.075.464l.033.032-.018.044c-.072.177-.276.27-.59.27-.306.042-.64.05-.963.055-.8.016-1.628.03-2.235.602l-.546.537h-.027c-.423.015-.734.215-1.063.428-.273.177-.556.36-.905.422-.19.125-.408.14-.58.14-.07 0-.143 0-.214-.005-.068-.003-.135-.006-.2-.006-.242 0-.43.04-.552.23.248.48.84.64 1.36.78.085.037.18.043.284.048.182.01.387.02.482.215l.006.022c.027.25.075.504.33.594.062.018.135-.018.206-.06.062-.038.126-.076.203-.076.058 0 .115.022.167.07.138.187.298.32.453.448.173.144.337.278.456.468l.022.034-.02.037c-.08.148-.214.222-.41.222-.097 0-.197-.017-.295-.033-.09-.017-.176-.03-.25-.03l-.032-.007-.033-.017c-.08.01-.165.026-.25.04-.17.03-.345.063-.515.063-.28 0-.49-.09-.643-.272-.127-.093-.247-.2-.363-.304-.328-.293-.64-.57-1.105-.574-.37.098-.72.238-.79.612-.025.136.06.215.157.306.048.045.097.09.13.144l.038.06-.057.036c-.605.41-.856.85-.745 1.3l.01.025c.05.122.088.196.197.196.076 0 .147-.03.224-.058.135-.052.292-.09.432-.014l.03.018.005.034c.012.086.016.18.02.278.015.326.03.663.322.79.1-.02.2-.07.294-.12.124-.062.252-.13.396-.13.11 0 .212.04.316.116.048.02.108.035.17.035.153 0 .298-.083.453-.173.1-.06.203-.118.31-.153l.023-.003c.54 0 .753.47.926.846l.024.056.072.056c.232.18.52.4.808.4.086 0 .167-.018.245-.06.103-.16.072-.34.04-.532-.044-.257-.093-.55.275-.73.116-.034.224-.048.353-.048.068 0 .136.004.204.008.163.01.326.01.46-.02l.01-.002.01.002c.162.015.32.03.48.03.505 0 .807-.15.978-.485l.49-.844.108-.556.04-.012c.137-.04.306.014.46.07.1.036.193.07.27.07.057 0 .122-.018.166-.146-.176-.518-.223-1.015-.145-1.562.106-.423.294-.77.544-1.014l.033-.032.198.082.008.036c.05.204.086.41.12.61.075.422.145.818.325 1.2l.008.017-.002.02c-.027.303-.124.59-.217.865-.084.25-.172.51-.206.778-.148.603-.57 1.11-1.16 1.404-.04.032-.198.18-.118.357.05.094.138.132.31.132.043 0 .087-.002.133-.004.108-.007.215-.008.296.006.75-.098 1.448-.46 1.967-1.022l.028-.03.04.01c.22.06.417-.04.597-.143.14-.08.286-.164.454-.164.1 0 .194.027.29.085.12.09.26.128.462.128.096 0 .196-.008.293-.017.097-.008.196-.016.29-.016.254 0 .56.056.665.502l.003.014-.003.015c-.02.11-.004.253.014.403.042.362.097.812-.416.948l-.015.005-.015-.002c-.21-.033-.432-.143-.645-.247-.26-.128-.527-.26-.78-.26-.208 0-.39.093-.555.284-.082.077-.248.267-.147.476.094.158.254.43.043.617l-.028.052c-.168.287-.36.61-.233.934.08.14.25.187.52.134.064-.028.142-.043.226-.043.168 0 .33.063.487.122.14.053.27.104.4.112l.022.002.114.09c.276.22.558.455.916.435.07-.044.097-.125.127-.215.025-.076.054-.16.112-.233.11-.094.247-.14.378-.188.246-.086.458-.16.458-.44.083-.434.445-.78.756-.964l.03-.017.03.012c.124-.002.687-.164.887-.438l-.072-.088h.002l-.102-.112c-.053-.06-.103-.114-.136-.145l-.018-.015-.004-.022c-.072-.32.1-.588.267-.844.208-.324.39-.604.12-.974l-.01-.02c-.038-.135-.055-.28-.073-.42-.04-.327-.08-.636-.352-.85-.155-.13-.342-.202-.54-.277-.167-.064-.342-.13-.506-.238l-.033-.02v-.038c0-.183.17-.204.273-.217.044-.004.09-.01.12-.022.27-.08.5.015.726.102.142.054.275.105.396.105.112 0 .205-.046.29-.146.03-.318-.262-.604-.496-.836l-.034-.034c-.327-.228-.747-.328-1.154-.425-.58-.138-1.178-.282-1.555-.81l-.035-.05.148-.14.035.01c.21.042.42.064.628.064.616 0 1.18-.194 1.586-.55.345-.443.704-.903 1.26-1.06.486-.38.585-.98.585-1.763.027-.29.155-.553.37-.77.12-.11.293-.164.462-.216.322-.1.505-.17.45-.44-.397-.205-.822-.4-1.303-.348l-.022.002-.02-.01c-.072-.04-.114-.09-.123-.15-.016-.11.08-.205.157-.28.027-.028.05-.052.065-.072l.02-.02c.18-.12.39-.23.59-.338.69-.37 1.406-.752 1.378-1.604-.023-.042-.036-.087-.05-.13-.033-.107-.053-.16-.143-.17-.17.022-.313.14-.464.266-.112.092-.228.188-.37.253-.367.206-.786.295-1.19.383-.443.094-.86.184-1.223.413l-.017.01h-.02c-.074 0-.13-.035-.157-.098-.04-.093.006-.223.057-.274.123-.17.308-.273.485-.37.217-.122.423-.236.526-.48.03-.073.056-.153.083-.235.108-.323.23-.69.59-.824.107-.082.232-.13.355-.18.17-.064.33-.128.413-.27-.033-.123-.193-.202-.326-.248-.125-.04-.255-.06-.387-.06-.594 0-1.124.4-1.463.738l-.022.015c-.078.033-.157.065-.237.1-.46.188-.933.386-1.266.74l-.014.014-.02.005c-.064.018-.15-.002-.206-.047-.053-.043-.083-.105-.083-.176-.093-.938.682-1.647 1.306-2.218l.193-.168c.16-.042.308-.137.466-.236.217-.14.444-.28.704-.28.103 0 .202.02.303.065.293.16.576.3.875.3.102 0 .198-.016.295-.048.28-.103.445-.325.62-.562.15-.203.305-.413.543-.557.06-.02.108-.028.16-.028.13.002.257.043.38.082zM17.877 17.74c-.246-.17-.418-.425-.375-.75.053-.22.13-.495.375-.54.124-.026.25.043.25.167-.08.324-.077.64.124.914.522.573 1.333.737 1.663 1.414h-.208c-.623-.396-1.178-.9-1.828-1.205zm-6.773-.874c.006-.132.037-.224.083-.25.137-.078.375.266.375.417.025.13.05.233 0 .332-.1.097-.22.012-.29-.042-.152-.123-.22-.335-.168-.457zm2.368 5.03c-.245-.027-.458.3-.706.123-.253-.202.085-.65-.29-.748-.423.176-.79.66-1.29.58.326-.544.92-1.143.624-1.868-.077-.326-.282-.665-.582-.79-.3-.024-.49.316-.79.166-.123-.28-.644-.148-.416-.498.174-.307.88-.332.582-.832-.2-.272-.655-.123-.707-.498.05-.228-.15-.557 0-.706.604-.045.98.543 1.33.914.675.33 1.188 1.002 1.663 1.58 1.072.895 2.192 1.685 3.49 2.035.052.2-.1.393-.25.54-.427.448-.757.967-1.204 1.37-.098.025-.213.01-.29-.04-.448-.43-.39-1.304-1.164-1.33zm-2.868 4.695c.02-.042.05-.105.084-.124.1-.056.24.025.332.084.175.176.54.24.54.54-.22.148-.593.247-.87.124-.15-.15-.06-.398-.086-.623zm7.44-.124c-.248.254-.643.042-.916.166-.376.097-.44 1.02-.914.415-.195-.07-.32.152-.416.25-.2.473-.403.913-.75 1.29-.077.044-.212.12-.29.04-.047-.318.224-.9-.25-.998-.2-.024-.406.088-.58.166-.372-.027-.838-.004-1.04.373-.052.175-.11.39-.333.416-.226-.104-.525-.16-.623-.458-.104-.078-.25-.164-.375-.04-.2.2-.256.54-.582.54-.253 0-.464-.07-.665-.168.05-.578.685-.645 1.08-.873.8-.174 1.404-.68 2.203-.83 1.253-.475 2.268-1.422 3.24-2.37.15-.05.267-.082.417-.082.097.194.095.454.375.498.272.053.624-.292.748.084-.05.52-.076 1.132-.33 1.58zm.415.29c.318-.823.573-1.82.25-2.742-.08-.176-.246-.117-.375-.042-.15.1-.23.32-.457.25-.177-.272.194-.696-.208-.873-.343.077-.53.39-.83.54-.753.446-1.674.598-2.577.623-.176 0-.317-.054-.415-.125.227-.228.56-.267.83-.416 1.047-.623 1.727-1.767 2.577-2.617-.077-.37-.392-.82-.04-1.164.28-.025.36.304.58.375.377.2.885.3 1.29.125.35-.072.596-.382.622-.706.025-.15-.11-.24-.208-.29-.097 0-.205.014-.25-.085 0-.176.1-.307.25-.333.42.026.863.914 1.163.167.175-.597-.367-1.038-.79-1.414-.097-.123-.176-.246-.124-.415.323-.2-.087-.485.165-.706.422-.325 1.09-.135 1.538-.458.772.018 1.293.615 1.995.79.098.148.028.473.333.498.072 0 .167.088.167.166-.024.248-.095.5-.166.748-.076.2-.332.262-.332.54 0 .15.223.225.25.374l-.043.997c-.623.2-.33 1.01-.374 1.413-.077.326.027.632 0 .956-.148.072-.42.064-.498.29 0 .378.168.658.29.956.23.326.683.41.708.83-.325.028-.61-.193-.914-.29-.474-.254-.808-.75-1.08-1.205-.08-.07-.18-.098-.25 0-.052.298-.06.762-.333.956-.325-.193-.306-.993-.83-.746-.178 1.07-.916 1.922-1.54 2.826-.15.045-.18.26-.374.206zm-4.863 7.065c.278.046.533.298.665.54-.22.15-.496.067-.748.043-.15-.124-.234-.396-.208-.54.094-.044.198-.056.29-.042zm8.394-2.535c-.426.406-.847.936-.996 1.538 0 .422-.017.81-.042 1.206-.125.102-.254-.055-.332-.127-.202-.298-.14-.968-.665-.872-.273.307-.548.77-.375 1.165.22.324.662.575.416.997-.377.2-.248.786-.748.83-.753.106-1.523-.233-2.12.292-.2.174-.354.42-.458.664-.343.055-.24-.42-.415-.623-.123-.2-.365-.062-.54-.165-.273-.1-.548-.393-.873-.167-.278.148-.59.48-.914.208l-.458-.124c-.024-.15.165-.35.042-.498l-.873-.374c-.055-.08-.012-.198.04-.25.727-.474 1.56.066 2.41-.083.553-.2 1.064-.06 1.664-.04.324.025.712.106.914-.167.125-.183.207-.464.084-.664-.255-.546-1.065-.68-1.165-1.332-.05-.122-.126-.236-.25-.29-.2-.07-.338.18-.54.083-.052-.175-.096-.426-.29-.498-.377 0-.84.173-1.165-.082.05-.195.308-.15.457-.25.526-.104.98-.437 1.454-.665l.707-.083c.72-1.17 2.203-1.11 3.45-1.163l1.247-.376c.42.1.51.605.582.956-.026.376-.047.632-.25.955zm3.16 7.025c.09-.055.25.052.29.125.02.13-.156.082-.208.082-.105.025-.122-.033-.166-.082.006-.055.053-.107.083-.125zm6.15-17.497c-.403-.077-.732-.49-1.206-.29-1.227.57-2.537 1.42-2.867 2.866-.144.552-.112 1.174.29 1.62.1.053.23.053.334 0 .248-.446.442-1.033 1.04-1.163.35-.123.713-.256 1.04-.458.05 0 .14-.062.166.04-.15.424-.357.933-.83 1.082-.353.3-.704.675-.75 1.12-.026.23-.05.534.126.71.176.148.383-.07.54-.168.642-.798 1.644-.904 2.618-.956.045.078-.11.225-.208.25-.824.274-1.597.963-1.87 1.786.025.124.103.204.208.25.396-.046.735-.26 1.164-.208.1.272-.352.272-.457.5-.772.675.003 2.183-1.29 2.408-.376.105-.333.527-.58.748-.423.553-1.128.702-1.83.624-.5.052-.9-.64-1.33-.167.052.493.46.782.707 1.205.63.603 1.486.618 2.286.872.098.026.196.11.25.207 0 .175-.226.11-.375.085-.5.07-1.085.158-1.58-.042-.078-.026-.14.093-.166.164.07.553.66.74 1.038 1.04.376.175.905.132 1.08.58v.583c.176.273.245.605.168.956-.345.397-.565.93-.292 1.455-.15.122-.39-.015-.54.08-.175.378-.66.468-.79.833-.025.307-.2.58-.5.624-.252-.02-.4.092-.623.042-.155-.175.066-.437-.207-.54-.35-.07-.497.452-.872.248-.176-.097-.337-.155-.415-.33-.02-.23.217-.314.373-.417.818-.096 1.905-.227 2.202-1.12.047-.43-.154-.794-.083-1.164-.123-.474-.607-.78-1.08-.83-.45-.124-.963.034-1.29-.292-.13-.096-.26-.196-.415-.125-.123.026-.176.204-.333.125-.124-.123-.31-.3-.458-.125-.3.6-.728 1.284-1.454 1.413-.098-.175.095-.38.166-.582.228-.475.403-1.02.5-1.537.2-.28.446-.627.29-.997-.297-.852-.667-1.762-.415-2.743.173-1.143-.107-2.22-.957-2.99-.475-.273-.843-.77-1.413-.874-.376-.124-.97.045-1.163-.333.045-.396.496-.646.664-.996l.667-.957c.272-.053.177.317.458.29.52 0 .494-.853 1.038-.58.253.35.662.447.915.747.35 1.43.854 2.8 1.828 3.948.752.975 1.92 1.722 3.116 1.372.325-.272.755-.565.83-1.04.327-2.27-2.545-3.406-2.326-5.65.2-2.126 2.352-3.29 4.072-4.114.948-.5 2.166-1.143 2.244-2.37-.026-.123-.003-.208.042-.332.35.124.35.547.374.873.08.397-.304.628-.208 1 .105.2.4.275.374.497-.945.027-1.085 1.273-2.035 1.246z"
      fill="currentColor"/>
    <path
      d="M2.932 12.09v2.623h38.124V12.09H2.932zm4.388 2.156H3.386v-1.688H7.32v1.688zm9.39 0h-4.332v-1.688h4.332v1.688zm9.48 0h-4.325v-1.688h4.325v1.688zm9.42 0h-4.33v-1.688h4.332v1.688z"
      fill="none"
      stroke-width=".188"
      stroke="currentColor"/>
    <path
      d="M14.856 9.302c.047.002.094.004.142.004.252 0 .418-.05.468-.3.054-.218.04-.414-.04-.558-.238-.21-.57-.21-.923-.21h-.02l-.015-.008c-.214-.12-.172-.355-.145-.51l.003-.02c-.09-.425-.057-.84-.025-1.242.024-.29.048-.59.027-.896l-.002-.024.133-.2.028-.005c.113-.026.223-.033.328-.04.218-.013.405-.024.563-.2.054-.094.147-.304.065-.493-.023-.123-.128-.184-.24-.247l-.042-.025c-.093-.062-.212-.052-.32-.047-.18.007-.385.02-.48-.19l-.006-.025c-.026-.41-.026-.794-.026-1.2-.08-.118-.202-.17-.405-.17-.08 0-.163.008-.244.015-.157.014-.31.022-.423 0-.468.024-.943-.002-1.4-.026-.32-.02-.65-.037-.968-.037-.698 0-1.216.09-1.684.29l-.03.01-.028-.01c-.364-.16-.795-.252-1.318-.28-.162-.008-.33-.018-.503-.03-.274-.018-.556-.035-.827-.035-.284 0-.52.02-.723.062-.106.008-.21-.01-.308-.02-.1-.013-.202-.025-.296-.025-.202 0-.323.052-.4.177L4.67 4.034l-.014.017c-.12.146-.28.164-.406.164-.052 0-.106-.003-.16-.007-.052-.004-.104-.007-.154-.007-.148 0-.243.034-.316.114-.18.152-.137.324-.087.522.062.208.232.284.485.34l.03.014c.048.04.11.044.18.044h.042c.087 0 .22 0 .31.126l.013.027c.106.53.08 1.028.056 1.51-.02.36-.037.702-.004 1.056l.002.034-.17.17-.026.003c-.06.006-.12.01-.18.013-.2.012-.388.02-.53.13-.175.15-.18.356-.18.614.023.03.044.064.065.1.068.11.115.178.21.19l.026.01c.064.036.14.043.233.043h.11c.137 0 .294.01.42.154l.017.03c.053.198.04.4.03.594-.018.288-.032.538.162.722.386.008.776.013 1.168.02.822.01 1.673.022 2.53.06h.02l.09.06c.195.132.38.257.616.3.31-.023.604-.145.826-.343l.02-.017h.023c.332-.022.696-.03 1.11-.03.494 0 1.004.013 1.5.026.485.014.987.027 1.48.027.07-.21.054-.495.04-.748-.005-.103-.01-.2-.01-.29-.026-.178 0-.313.075-.4.095-.11.25-.125.39-.125.046 0 .093 0 .14.002zM13.21 3.37c.104-.13.26.024.31.13-.025 2.098.026 4.162-.052 6.05-.052.105-.154-.024-.233-.076-.13-.312-.027-.7-.027-1.007-.076-1.682 0-3.39 0-5.097zm-3.72-.054c.15-.304.513-.408.85-.408l2.428.026.078.123c0 2.098 0 4.09-.025 6.13-1.032.104-2.195-.077-3.232.21-.228-.21-.054-.546-.1-.826-.05-.675 0-1.422-.032-2.123.033-1.006-.045-2.142.033-3.13zM6.124 7.33c.026-1.298.053-2.876.053-4.272 0-.103.13-.15.208-.174.903.07 1.884-.156 2.61.304l.105.234c.052 1.733.052 3.493.052 5.305l-.05.67c-.444.024-.886-.21-1.373-.158-.495-.052-1.04.05-1.474-.08-.26-.59-.078-1.186-.13-1.83zm-.31-4.064c.103 2.098-.027 4.11.026 6.104-.025.104-.13.234-.26.234-.155-.65-.13-1.267-.078-1.916-.052-1.32-.025-2.792-.025-4.11.052-.13.208-.262.338-.312zm2.714 7.187c-.26.104-.572.054-.852.054l-2.637-.054c-.18-.155-.102-.52-.102-.72 0-.26.08-.572-.208-.73-.364-.076-.728.028-.96-.258.18-.514 1.012-.098 1.168-.67.08-.96-.078-1.915-.026-2.817-.105-.518-.675-.362-1.04-.44-.05-.05-.122-.13-.1-.234.31-.305.933.052 1.167-.383.102-.414.024-.805.078-1.187.13-.13.355-.13.54-.078v.103c-.237.176-.54.514-.438.826.1 2.168 0 4.11.1 6.147l.18.21c1.012 0 2.123-.105 3.103.077.05.026.05.105.026.156zm.128-.416c-.824-.225-1.733-.07-2.61-.174l-.026-.027c.052-.154.182-.285.365-.285.875 0 1.727 0 2.506.184.024.13-.105.252-.235.303zm.93.755c-.105.13-.306.154-.462.077-.157-.026-.182-.21-.208-.34-.05-.285.234-.382.39-.597.203.032.332.164.435.287.05.208.026.468-.155.572zm.415-.78c-.105-.02-.21-.097-.21-.228.08-.233.365-.156.572-.233.8.027 1.76-.024 2.534 0 .128.055.258.156.336.286-.078.156-.312.08-.468.13h-.826c-.674-.032-1.342-.076-1.94.047zm4.084-.773c-.078.414.05.83-.078 1.24l-.185.077-3.642-.05c-.078-.055 0-.105.025-.158l.364-.13 2.95.024c.303-.076.303-.46.33-.694-.026-1.448 0-2.713-.026-4.11-.024-.7.105-1.37-.05-2.046-.028-.154-.254-.26-.28-.433.155-.078.435-.078.538.076.078.41-.103.956.156 1.365.26.157.65.08.91.13.103.105.078.26.026.365-.285.285-.884-.078-1.04.39 0 1.006-.052 1.985.026 3.025l.156.13c.338.052.753-.078.98.175.026.157 0 .312-.15.364-.336.08-.83-.105-1.01.26zM28.123 8.99c.04-.17 0-.322-.118-.465-.108-.16-.27-.18-.458-.203-.174-.02-.354-.044-.49-.183l-.02-.02-.002-.025c-.08-.895-.052-1.557 0-2.464l.007-.025c.112-.24.356-.257.572-.27.187-.012.363-.022.47-.158.11-.134.11-.415.04-.578-.107-.245-.347-.28-.6-.317-.124-.02-.252-.037-.366-.082l-.033-.012-.01-.034c-.07-.244-.062-.474-.055-.697.007-.208.013-.422-.042-.646l-.05-.03c-.102-.066-.216-.144-.318-.125-.208.022-.426.033-.67.033-.342 0-.69-.02-1.03-.04s-.686-.042-1.025-.042c-.678 0-1.21.088-1.675.278-.08.052-.178.08-.282.08-.162 0-.317-.07-.467-.136-.12-.054-.235-.105-.352-.12l-2.34-.027c-.108.022-.322.012-.51-.003-.11-.01-.225-.02-.333-.02-.312 0-.496.08-.612.26l-.084 1.23c-.105.183-.318.185-.506.187-.1 0-.2.002-.284.026-.26.047-.41.272-.366.537.047.358.33.384.655.412.15.012.306.026.437.078l.045.017v.05c0 .186.014.365.027.54.023.304.047.617-.002.97l.026 1.15-.017.022c-.157.185-.394.188-.624.19-.23.003-.45.006-.58.187-.067.198-.085.356-.05.457.122.293.428.313.752.334.153.01.31.02.444.064l.036.013.01.038c.075.3.057.6.04.886-.006.116-.013.232-.013.35.138.188.35.27.702.27.12 0 .243-.01.363-.018.15-.01.305-.022.444-.015.38-.014.768-.006 1.15 0 .37.008.738.014 1.118 0h.016l.663.293c.28.16.544-.012.8-.184l.112-.073.016-.01 1.052-.026c.42-.03.942-.014 1.415.01.274.01.558.024.835.024.334 0 .616-.02.886-.058.174-.1.167-.236.14-.468-.016-.147-.034-.298.024-.445.026-.062.017-.137.008-.217-.014-.12-.03-.258.088-.356l.032-.015c.07-.016.145-.028.22-.04.3-.05.583-.097.735-.334zm-2.18-5.594c.128-.078.336.078.336.234-.026 1.97.052 4.085-.078 6-.104.025-.234-.104-.26-.21-.026-.804-.104-1.603-.053-2.453.052-1.116-.078-2.428.052-3.57zM22.17 8.852V3.475c0-.182.124-.338.28-.39.286-.2.675-.122 1.04-.176l2.037.053.053.146c-.027 2.02.024 4.09-.027 6.103l-.104.054c-1.11.103-2.195-.184-3.2.18-.184-.103-.028-.414-.08-.595zm-3.258-5.838c-.027-.11.078-.05.13-.078.85.052 1.856-.13 2.61.2.233.21.207.572.207.884-.027.98.052 2.14-.053 3.18l.027.358c.052.675 0 1.215-.027 1.916-.31-.053-.65-.155-.98-.207-.648 0-1.27.052-1.89-.054l-.052-.232c0-2.012.027-3.93.027-5.966zm-.416.2l.103.104c.077 1.787-.104 3.39 0 5.176-.155.41.182 1.007-.417 1.11-.103-1.786-.025-3.702-.078-5.637-.05-.31.13-.597.39-.753zm2.377 7.395c-1.034-.026-2.142.05-3.15-.08l-.103-.077c-.027-.46.025-.954-.183-1.37-.31-.13-.695 0-1.033-.103-.156-.078-.103-.286 0-.385.338-.18.98.1 1.162-.363-.025-1.013.054-1.967 0-2.998-.286-.416-.876-.027-1.136-.416.104-.593.928-.078 1.163-.565l.078-1.216c.157-.154.365-.103.54-.076-.052.228-.253.306-.358.488-.157.416.027.83-.052 1.265.026 1.787 0 3.468.026 5.22 0 .138.097.288.227.313l2.772.053c.15.024.33.078.436.182-.05.154-.258.102-.387.127zm-2.377-.695c.078-.13.156-.26.285-.364.904.08 1.89-.05 2.767.185.104.024.232.13.156.252l-.207.183c-.903-.332-2.046-.105-3-.255zm3.57 1.008c-.18.024-.468 0-.468-.263.052-.18.208-.337.39-.44.182-.05.28.13.332.234 0 .206-.026.47-.254.47zm.54-.806c-.156.026-.332 0-.357-.176.096-.233.408-.31.667-.336.93-.078 1.837 0 2.74 0 .13.078.285.208.285.337l-.13.046c-1.083.027-2.2-.122-3.205.13zm4.214-.878c-.08.466.13.875-.054 1.317l-.13.078c-1.317-.026-2.61-.026-3.848-.052-.052-.026-.027-.104.026-.13l.232-.13c1.033-.104 2.17 0 3.26-.104.157-.027.28-.15.253-.307 0-1.967.025-4.014.025-6.208-.05-.312-.357-.493-.408-.772.18 0 .513-.104.616.123 0 .468-.027.883.08 1.345.31.287 1.187-.122 1.004.572-.28.182-.668.052-.98.104l-.077.106c-.13 1.032.078 2.097 0 3.025.025.104.078.286.233.305.285.033.728-.175.824.19-.045.615-.85.05-1.057.537zM40 9.256c.085-.01.166-.02.224-.048.19-.073.3-.205.323-.386 0-.17-.112-.31-.234-.454-.106-.052-.224-.076-.348-.1-.15-.032-.308-.063-.443-.15l-.033-.022v-.038c0-.298-.01-.596-.02-.884-.016-.574-.033-1.116.02-1.636l.002-.02.013-.017c.127-.16.316-.163.483-.166.144-.003.28-.007.373-.1.12-.138.26-.3.214-.527-.04-.332-.245-.373-.575-.413-.193-.022-.392-.046-.537-.17l-.02-.016-.005-.025c-.028-.172-.02-.353-.012-.527.015-.302.028-.59-.14-.816-.3-.06-.608-.065-.908-.07-.31-.007-.63-.014-.943-.076-.31.05-.644.054-.968.056-.627.005-1.276.01-1.755.37l-.03.02-.036-.012c-.093-.03-.184-.064-.274-.098-.288-.108-.56-.21-.865-.21l-3.516-.077-.088.067-.048 1.335-.064.16-.03.01c-.124.042-.257.06-.386.08-.285.04-.554.076-.686.343-.05.3.008.506.178.612.084.06.23.062.37.063.25.003.558.008.596.353-.014.454-.002.896.01 1.366.008.316.017.645.017.975l-.003.02c-.06.218-.257.218-.35.218l-.123-.002c-.055 0-.116.003-.158.027l-.02.008c-.153.034-.413.127-.438.378-.024.186.02.413.217.5.09.042.203.057.322.07.2.025.427.054.542.244l.006.016c.053.177.038.38.023.573-.023.304-.043.592.168.79l2.247.026c.09.003.183.004.276.004h.002c.154 0 .31-.003.467-.003.513 0 1.1.025 1.565.323.055.02.12.033.188.033.198 0 .38-.113.557-.223.058-.035.114-.07.17-.1l.016-.01h.018l3.045.033c.296 0 .604 0 .87-.114.027-.19.02-.386.01-.577-.01-.235-.02-.48.036-.705.086-.234.306-.26.483-.282zm-1.766-5.912c.103-.234.31.105.39.234-.053 1.447-.026 2.817.025 4.187-.027.65-.027 1.216-.027 1.812-.025.05-.025.077-.078.104-.44-.182-.284-.676-.31-1.058.026-.546-.053-1.168.05-1.707l-.078-.184.027-3.386zm-6.747-.41c.903 0 1.682.028 2.533.1.57.18.416.855.44 1.292-.032.167-.08.324-.123.486l.104.222.397.078.124-.28c-.064-.22-.13-.44-.187-.655.05-.365-.08-.727.18-1.04.54-.338 1.294-.123 1.963-.234l.93.033c.13.202.102.488.102.722 0 1.24.027 2.402-.027 3.57 0 0 .055 1.57-.044 2.014l-.207.078c-.935.104-1.917-.208-2.715.26-.156.026-.156-.182-.18-.26l.05-2.664c.027-.024.04-.044.052-.058l-.045-.148-.45-.052v.162c.12.032.08.208.106.28.027.875.027 1.83-.052 2.636-.286.076-.47-.184-.746-.184-.728.052-1.403-.077-2.15.027-.26-.105-.18-.417-.18-.65-.026-1.96 0-3.67-.026-5.656.024-.052.102-.08.153-.08zm-.518.306c.102.233.05.39.102.624V9.42c-.05.157-.233.234-.337.34l-.103-.078c-.02-.598.025-1.267-.02-1.84v-.44c-.033-1.215-.033-2.56.02-3.8.102-.102.207-.31.337-.362zm2.92 7.344c-1.24-.026-2.48.076-3.694-.026l-.105-.13c-.05-.463.054-.902-.153-1.318-.285-.26-1.11.078-.902-.514.304-.232.798.077.98-.31 0-1.086.052-2.047-.026-3.052-.236-.313-.676-.105-.98-.184-.105-.104-.182-.26-.08-.39.337-.278 1.318.08 1.137-.72.103-.34-.156-.98.31-1.007.106 0 .235-.033.307.078-.052.202-.306.358-.384.565.027 2.124 0 4.423.078 6.616l.183.105c1.137.025 2.35-.233 3.332.233.05.03.024.03 0 .056zm-.72-.57c-.676-.08-1.422 0-2.1-.08.184-.564.98-.228 1.423-.33.598.078 1.266-.104 1.786.208.078.052.078.18 0 .2-.313.365-.695-.078-1.11 0zm1.577.932c-.208.027-.39-.077-.44-.26-.054-.26.102-.492.284-.597.235-.026.34.154.443.286.026.233.026.57-.286.57zm.514-.777c-.156-.027-.207-.204-.156-.307.208-.235.546-.182.858-.235l2.116.054c.13.077.26.208.287.33-1.06.13-2.092-.122-3.104.157zm3.962-.93l-.054 1.29-.182.078-3.44-.024c-.053-.053-.027-.078.025-.104l.417-.156h2.61c.13-.025.312-.13.312-.312-.027-2.038-.052-4.16-.052-6.383l-.312-.617c.13-.13.494-.156.57.045.106.494-.102.987.183 1.424.305.077.8-.106.956.206-.026.624-.878.13-1.06.624.078.98-.08 1.785.027 2.844-.105.076-.13.18-.054.284.278.233.642-.154.93.104.18.052.078.208.078.307-.238.338-.802-.045-.956.39z"
      fill="currentColor"/>
    <path
      d="M21.547 7.123c-.312-.26-.39-.65-.65-.962.104-.153.286-.18.416-.31.207-.2.416-.487.312-.8-.027-.26-.156-.52-.416-.648-.542-.2-1.24-.123-1.788-.07-.103.05-.13.15-.05.227.207.076.285.23.31.414-.026.7-.026 1.396-.103 2.097l-.287.307c.286.26.676.06 1.092.13.103-.182-.183-.313-.235-.514.052-.207 0-.492.13-.675.39.337.52.876.98 1.188l.61.046-.02-.33c-.075.05-.225-.074-.303-.1m-.805-1.27c-.175 0-.46.13-.512-.1.024-.337-.13-.778 0-1.09.232-.18.597-.104.772.13.103.182.103.415.103.623-.103.183-.156.39-.363.436m14.213.727c.104.155.176.312.156.513l-.207.286.13.104c.305-.025.72.078 1.007-.052-.08-.156-.26-.208-.364-.31-.364-.95-.617-1.956-.902-2.938l-.313.15c-.18.876-.544 1.676-.75 2.584-.046.175-.23.202-.36.305-.18.05-.258-.157-.336-.254-.025-.78.08-1.423.027-2.254-.026-.13.13-.286.26-.154.208.104.182.362.26.545.053.078.183.078.2-.053l.132-.798c-.104-.26-.332.026-.54 0-.39-.027-.934.078-1.298-.156-.304.104-.228.54-.278.824-.025.053 0 .104.026.13.252-.154.382-.57.746-.468l.026.78-.08 1.682c-.103.13-.356.175-.336.356.44.13.986 0 1.428.053.253.025.54.078.747 0 .05-.053.027-.13-.025-.183-.156-.078-.34-.208-.286-.408.08-.13.104-.39.338-.312.058 0 .078.03.096.07l.37.046v-.012c.05-.05.05-.077.13-.077m-.547-.363l-.13-.053c.08-.283 0-.616.235-.824.232.157.207.515.31.8-.05.13-.285.13-.416.078m2.902-1.76c0 .188.135.524-.025.66-.183-.16-.208-.316-.5-.395-.157 0-.313.025-.345.207-.053.56.505.56.818.923.292.292.422.766.292 1.135-.123.3-.265.476-.552.476-.265.053-.455-.13-.663-.025-.05 0-.154.05-.215-.026l.033-1.026c.027-.052.08-.08.13-.08.157.338.052.736.526.76.157-.023.287-.044.313-.25.058-.924-1.156-.696-1.13-1.644.027-.215.052-.397.162-.58.208-.343.683-.135 1-.343.132-.052.132.128.157.207m-12.974-.052c-.26.13-.545.338-.468.7-.077.625-.05 1.267-.024 1.942l.416.356-.026.053c-.442 0-.85.078-1.292 0-.183-.2.233-.306.31-.462.08-.726.158-1.472.08-2.278-.08-.23-.468-.13-.365-.382.39-.052.9-.052 1.292 0l.076.072zm-12.55.494c-.26.31-.31-.286-.57-.313-.157-.02-.39-.07-.514.053-.05.338-.103.65 0 .962.104.076.306.052.436.052.156-.105.234-.392.442-.364.13.13-.053.337.025.467-.052.202.13.436-.104.514-.156-.078-.234-.364-.442-.364l-.356.027c-.13.467-.078.883 0 1.324.2.2.462.02.695.02.336-.072.26-.54.544-.487.08.182.105.468.053.67l-.157.1-1.837-.024c-.078-.028-.26-.028-.182-.157.6-.357.26-1.06.338-1.624-.077-.416.234-1.04-.31-1.292-.027-.155.155-.11.207-.155.467 0 1.083.177 1.447-.208.287.156.26.513.287.8M8.97 4.48c-.52.416-.546 1.142-.78 1.734-.207.338-.104.83-.434 1.117-.13.046-.235-.077-.26-.182-.182-.804-.415-1.604-.7-2.357-.027-.23-.566-.285-.255-.46.385-.05.67.053 1.035.02.077.233-.286.363-.183.65.234.336.156.85.442 1.187l.13-.13c.02-.59.694-1.137.122-1.655.13-.228.52-.07.78-.15.05.046.235.1.103.23"
      fill="currentColor"/>
  </symbol>
  <symbol id="harvard-hms-dbmi" viewBox="0 0 158.182 48">
    <path
      d="M27.053 14.493h1.364c1.502 0 2.485.698 2.485 2.374 0 1.708-1.003 2.415-2.485 2.415h-1.364v-4.79m1.436 4.065c1.092 0 1.604-.48 1.604-1.69 0-1.15-.518-1.624-1.62-1.624h-.614v3.314h.63zM31.93 14.493h3.09v.75h-2.283v1.19h1.677v.72h-1.677v1.39h2.415v.738H31.93v-4.787M36.11 14.493h1.677c1.035 0 1.844.362 1.844 1.47 0 1.157-.885 1.5-1.868 1.5h-.85v1.82h-.802v-4.79m1.69 2.264c.712 0 1.035-.22 1.035-.77 0-.53-.323-.758-1.042-.758h-.88v1.526h.888zM41.36 14.473h.797l1.695 4.808h-.828l-.39-1.138h-1.816l-.396 1.14h-.756l1.695-4.81m1.036 2.958l-.652-1.94h-.015l-.666 1.94h1.332zM44.722 14.493h1.715c1.14 0 1.8.458 1.8 1.436 0 .762-.397 1.196-1.063 1.358l1.126 1.994h-.867l-1.075-1.89h-.84v1.89h-.796v-4.79m1.68 2.194c.674 0 1.036-.167 1.036-.737 0-.55-.355-.72-1.04-.72h-.882v1.456h.887zM50.334 15.243H48.86v-.75h3.76v.75h-1.477v4.038h-.81v-4.037M53.502 14.493h1.067l1.28 3.798h.013l1.242-3.797h1.088v4.79h-.783V15.71h-.013c-.072.33-.174.64-.285.977l-.932 2.596h-.72l-.924-2.596c-.117-.343-.188-.55-.292-1.01h-.013v3.606h-.73v-4.79M59.444 14.493h3.095v.75h-2.286v1.19h1.676v.72h-1.676v1.39h2.415v.738h-3.226v-4.787M63.628 14.493h.822l2.266 3.416h.012v-3.417h.75v4.788h-.738l-2.35-3.487h-.01v3.488h-.752v-4.787M69.837 15.243H68.36v-.75h3.76v.75h-1.474v4.038h-.81v-4.037M74.365 16.886c0-1.61.95-2.484 2.167-2.484 1.21 0 2.155.873 2.155 2.484s-.945 2.485-2.155 2.485c-1.217.002-2.167-.872-2.167-2.484m3.507 0c0-1.125-.537-1.74-1.34-1.74-.815 0-1.354.614-1.354 1.74s.538 1.753 1.354 1.753c.803 0 1.34-.627 1.34-1.754zM79.706 14.493h3.016v.75h-2.207v1.28h1.597v.72h-1.597v2.038h-.81v-4.787M26.85 33.685c.438-.085.675-.436.675-.8V25.77c0-.35-.253-.657-.674-.757v-.183c.17 0 1.04.03 1.278.03.408 0 1.122-.086 1.586-.086 1.584 0 2.973.505 2.973 2.26 0 1.08-.715 1.78-1.613 2.02v.028c1.236.295 2.092 1.235 2.092 2.33 0 1.893-1.544 2.51-3.13 2.51-.462 0-1.5-.083-1.907-.083-.24 0-1.096.026-1.278.026v-.18m2.608-4.842c1.164 0 1.95-.393 1.95-1.754 0-1.122-.84-1.853-2.006-1.853-.31 0-.42.028-.716.113v3.493h.772zm-.772 4.433c.296.083.758.112 1.068.112 1.29 0 2.13-.73 2.13-2.008 0-1.276-.98-2.006-2.09-2.006H28.69v3.9zM34.708 33.698c.294-.126.617-.28.617-.548v-3.675c0-.45-.253-.66-.715-.758v-.155l1.626-.645h.154v5.232c0 .28.295.406.632.547v.168c-.183 0-.996-.027-1.18-.027-.18 0-.966.027-1.135.027v-.167m1.11-8.095c.335 0 .63.294.63.617 0 .337-.295.617-.63.617-.338 0-.647-.28-.647-.617 0-.324.31-.617.646-.617zM38.328 30.948c0-1.74 1.22-3.03 2.945-3.03 1.727 0 2.947 1.29 2.947 3.03 0 1.754-1.193 3.017-2.947 3.017-1.74 0-2.945-1.263-2.945-3.017m4.755-.015c0-1.148-.518-2.51-1.81-2.51-1.29 0-1.81 1.36-1.81 2.51 0 1.15.52 2.527 1.81 2.527 1.292 0 1.81-1.376 1.81-2.527zM45.44 33.698c.294-.126.617-.28.617-.548v-3.675c0-.45-.252-.66-.716-.758v-.155l1.572-.645h.155l.056.91c.505-.476 1.08-.91 1.95-.91.828 0 1.264.38 1.446.91.503-.476 1.23-.91 2.088-.91 1.208 0 1.57.77 1.57 1.71v3.522c0 .28.297.406.632.547v.168c-.182 0-.994-.027-1.177-.027s-.97.027-1.137.027v-.168c.294-.126.616-.28.616-.548v-2.736c0-.996-.056-1.78-1.05-1.78-.563 0-1.11.32-1.434.644.016.112.016.24.016.35v3.522c0 .28.293.407.63.548v.168c-.182 0-.996-.027-1.18-.027s-.966.026-1.135.026v-.168c.295-.126.617-.28.617-.548v-2.735c0-.996-.058-1.78-1.054-1.78-.63 0-1.122.418-1.402.77v3.746c0 .282.297.408.632.55v.167c-.183 0-.996-.027-1.177-.027-.183 0-.97.027-1.137.027v-.17M61.196 33.066c-.31.365-.94.898-2.05.898-1.978 0-3.03-1.207-3.03-3.032 0-1.85 1.277-3.015 2.808-3.015 1.487 0 2.454 1.052 2.385 2.258 0 .1-.016.225-.043.296h-3.985c-.182 1.613.716 2.82 2.05 2.82.756 0 1.276-.126 1.627-.49l.236.266m-1.025-3.073c.1-.7-.35-1.57-1.23-1.57-.93 0-1.476.855-1.603 1.57h2.834zM68.996 33.36s-.295.155-.59.352c-.225.154-.52.393-.52.393-.195-.182-.435-.49-.573-.884-.408.45-1.193.745-2.063.745-1.43 0-2.427-1.375-2.427-2.946 0-1.657 1.052-3.102 2.624-3.102.715 0 1.332.252 1.753.716v-2.807c0-.448-.252-.66-.715-.757v-.156l1.627-.644h.153v8.36c0 .45.14.562.31.562.098 0 .253-.014.322-.057l.1.225M67.2 29.686c-.1-.702-.813-1.138-1.585-1.138-1.096 0-1.655 1.166-1.655 2.316 0 1.248.66 2.427 1.822 2.427.548 0 1.137-.252 1.418-.756v-2.848zM70.245 33.698c.294-.126.617-.28.617-.548v-3.675c0-.45-.253-.66-.716-.758v-.155l1.628-.645h.154v5.232c0 .28.294.406.632.547v.168c-.183 0-.997-.027-1.18-.027-.182 0-.968.027-1.136.027v-.167m1.11-8.095c.337 0 .63.294.63.617 0 .337-.293.617-.63.617s-.646-.28-.646-.617c0-.324.31-.617.646-.617zM79.084 32.927c-.31.364-1.08 1.038-2.188 1.038-1.98 0-3.03-1.207-3.03-3.032 0-1.922 1.305-3.015 3-3.015.59 0 1.433.126 1.966.28v1.192h-.183c-.337-.59-.912-.97-1.74-.97-1.18 0-1.908.94-1.908 2.36 0 1.57.855 2.51 2.076 2.51.758 0 1.418-.267 1.77-.63l.236.267M81.173 28.197c.532-.153 1.15-.28 1.978-.28 1.673 0 2.01.855 2.01 1.797v2.918c0 .448.14.56.308.56.097 0 .253-.013.322-.056l.098.225s-.293.156-.59.353c-.224.154-.518.393-.518.393-.197-.182-.435-.49-.575-.884-.407.45-1.067.744-1.81.744-1.066 0-1.823-.505-1.823-1.642 0-1.067 1.01-1.614 2.033-1.797.28-.042 1.18-.055 1.486-.055v-.912c0-.632-.39-1.15-1.247-1.15-.688 0-1.15.336-1.488.926h-.182v-1.14m2.918 2.724h-.825c-.828 0-1.56.45-1.56 1.347 0 .645.438 1.024.97 1.024.56 0 1.122-.308 1.416-.785V30.92zM87.04 33.698c.292-.126.614-.28.614-.548v-7.323c0-.448-.25-.66-.715-.757v-.156l1.627-.644h.153v8.88c0 .28.296.407.63.548v.168c-.182 0-.995-.027-1.178-.027-.18 0-.967.026-1.134.026v-.168M93.98 33.685c.465-.1.73-.31.73-.758V25.77c0-.448-.266-.657-.73-.757v-.183c.1 0 1.11.03 1.348.03.213 0 1.178-.03 1.293-.03v.183c-.448.126-.745.296-.745.757v7.157c0 .463.297.63.746.758v.182c-.1 0-1.08-.027-1.292-.027-.236 0-1.232.027-1.347.027v-.182M97.91 33.698c.295-.126.617-.28.617-.548v-3.675c0-.45-.252-.66-.717-.758v-.155l1.572-.645h.154l.057.91c.504-.476 1.137-.91 2.008-.91 1.206 0 1.907.77 1.907 1.71v3.522c0 .28.295.406.63.547v.168c-.18 0-.993-.027-1.177-.027-.182 0-.97.027-1.135.027v-.168c.293-.126.615-.28.615-.548v-2.736c0-.996-.393-1.78-1.39-1.78-.63 0-1.18.418-1.458.77v3.746c0 .28.295.407.63.548v.168c-.18 0-.995-.027-1.177-.027s-.97.026-1.137.026v-.168M105.584 33.698c.295-.126.62-.28.62-.548v-4.603h-.802v-.393l.8-.14v-1.74c0-1.332.98-2.005 1.81-2.005.53 0 .98.167 1.375.278v1.136h-.182c-.28-.49-.52-.91-1.166-.91-.353 0-.772.38-.772 1.135v2.103h1.53v.533h-1.53v4.603c0 .28.38.434.77.547v.168c-.18 0-1.134-.027-1.317-.027-.18 0-.966.027-1.136.027v-.167M109.107 30.948c0-1.74 1.22-3.03 2.945-3.03 1.727 0 2.947 1.29 2.947 3.03 0 1.754-1.196 3.017-2.948 3.017-1.74 0-2.945-1.263-2.945-3.017m4.754-.015c0-1.148-.517-2.51-1.808-2.51-1.293 0-1.81 1.36-1.81 2.51 0 1.15.517 2.527 1.81 2.527 1.292 0 1.81-1.376 1.81-2.527zM116.22 33.698c.294-.126.616-.28.616-.548v-3.675c0-.45-.252-.66-.715-.758v-.155l1.57-.645h.157c.012.267.055 1.052.055 1.052.352-.465.77-1.053 1.643-1.053.322 0 .63.084.896.195v1.277h-.18c-.226-.408-.575-.716-1.04-.716-.828 0-1.318.617-1.318 1.29v3.185c0 .28.295.406.63.547v.168c-.18 0-.995-.027-1.175-.027-.184 0-.97.027-1.137.027v-.167M121.34 33.698c.295-.126.617-.28.617-.548v-3.675c0-.45-.252-.66-.715-.758v-.155l1.57-.645h.156l.055.91c.504-.476 1.08-.91 1.95-.91.83 0 1.263.38 1.444.91.506-.476 1.234-.91 2.09-.91 1.207 0 1.572.77 1.572 1.71v3.522c0 .28.294.406.63.547v.168c-.182 0-.996-.027-1.178-.027s-.967.027-1.135.027v-.168c.293-.126.617-.28.617-.548v-2.736c0-.996-.06-1.78-1.053-1.78-.56 0-1.108.32-1.43.644.013.112.013.24.013.35v3.522c0 .28.295.407.633.548v.168c-.184 0-.998-.027-1.18-.027-.184 0-.97.026-1.137.026v-.168c.294-.126.616-.28.616-.548v-2.735c0-.996-.057-1.78-1.053-1.78-.63 0-1.123.418-1.402.77v3.746c0 .282.296.408.632.55v.167c-.184 0-.996-.027-1.178-.027s-.97.027-1.137.027v-.17M132.62 28.197c.532-.153 1.15-.28 1.978-.28 1.67 0 2.006.855 2.006 1.797v2.918c0 .448.14.56.31.56.097 0 .253-.013.32-.056l.1.225s-.292.156-.59.353c-.224.154-.517.393-.517.393-.197-.182-.436-.49-.576-.884-.405.45-1.065.744-1.81.744-1.064 0-1.824-.505-1.824-1.642 0-1.067 1.01-1.614 2.035-1.797.282-.042 1.18-.055 1.487-.055v-.912c0-.632-.393-1.15-1.248-1.15-.69 0-1.15.336-1.487.926h-.184v-1.14m2.917 2.724h-.826c-.827 0-1.558.45-1.558 1.347 0 .645.436 1.024.97 1.024.56 0 1.122-.308 1.415-.785V30.92zM139.283 28.548h-.87v-.335l.757-.225c.406-.365.604-.927.717-1.587h.463v1.614h1.725v.533h-1.725v3.593c0 .744.238.995.674.995.42 0 .688-.21.87-.407l.224.212c-.154.295-.703 1.024-1.5 1.024-.676 0-1.334-.322-1.334-1.642v-3.774M143.62 33.698c.294-.126.616-.28.616-.548v-3.675c0-.45-.254-.66-.715-.758v-.155l1.626-.645h.156v5.232c0 .28.293.406.63.547v.168c-.18 0-.995-.027-1.18-.027-.18 0-.966.027-1.134.027v-.167m1.11-8.095c.335 0 .632.294.632.617 0 .337-.297.617-.633.617s-.645-.28-.645-.617c0-.324.31-.617.645-.617zM152.457 32.927c-.31.364-1.08 1.038-2.19 1.038-1.976 0-3.03-1.207-3.03-3.032 0-1.922 1.307-3.015 3.004-3.015.59 0 1.43.126 1.966.28v1.192h-.184c-.336-.59-.91-.97-1.74-.97-1.178 0-1.906.94-1.906 2.36 0 1.57.855 2.51 2.076 2.51.758 0 1.416-.267 1.766-.63l.24.267M154.168 32.45h.184c.393.7.842 1.01 1.57 1.01.8 0 1.234-.295 1.234-.815 0-.335-.168-.56-.463-.7l-1.74-.855c-.56-.282-.91-.716-.91-1.403 0-1.15 1.037-1.768 2.146-1.768.575 0 1.29.138 1.767.278v1.193h-.184c-.31-.546-.826-.968-1.557-.968-.688 0-1.12.365-1.12.885 0 .45.167.673.63.897l1.768.856c.31.154.688.533.688 1.178 0 1.11-.87 1.727-2.244 1.727-.576 0-1.293-.14-1.77-.28V32.45"
      fill="currentColor"/>
    <path
      d="M13.487 0v48"
      fill="none"
      stroke="currentColor"
      stroke-width=".784"/>
  </symbol>
  <symbol id="refinery" viewBox="0 0 200 200">
    <path
      d="M200 101.844C199.572 45.532 154.992 0 100 0 45.007 0 .427 45.532 0 101.844c.232 39.782 23.206 74.12 56.41 90.417.23.123.463.245.707.318.745.402 1.526.72 2.307 1.074 6.116 2.697 12.55 4.834 19.25 6.348-24.622-19.75-48.645-50.366-5.688-110.327l.122-.17c27.71-38.697 25.83-75.392 18.506-82.57 4.346 4.25 48.523 42.042 6.19 101.222l-.16.146c-25.867 36.183-31.91 64.1-11.01 85.28.94.11 1.22 1.623-.782-3.492-4.163-10.633-4.626-24.988-.195-37.793 4.42-12.817 14.343-32.8 16.93-34.63-1.293.914-4.7 12.73-1.098 24.425 2.428 7.86 11.718 20.117 14.342 28.882 4.395 14.515-1.172 18.005-3.49 22.718 1.062-.11.12-.232 1.184-.428 13.086-11.463 15.283-23.682 2.82-46.924l-.074-.122C93.25 103.31 130.188 67.7 140.027 65.112c-4.518 1.196-18.812 37.146-2.405 65.784 15.735 27.465 1.966 58.47-13.99 68.59.233-.048.44-.084.673-.158.658-.158 1.293-.316 1.953-.524.83-.23 1.647-.464 2.44-.708.623-.158 1.245-.354 1.88-.562 1.1-.354 2.197-.745 3.248-1.1.244-.12.512-.206.744-.28 37.99-14.16 65.15-51 65.43-94.31z"
      fill="currentColor"/>
  </symbol>
  <symbol id="location" viewBox="0 0 16 16">
    <path
      d="M12.283,2.831c-0.232-0.552-0.566-1.048-0.992-1.473c-0.426-0.426-0.922-0.76-1.475-0.994C9.246,0.123,8.638,0,8.013,0
      C7.387,0,6.78,0.123,6.208,0.364C5.657,0.598,5.161,0.932,4.735,1.358C4.31,1.783,3.975,2.279,3.742,2.831
      C3.5,3.403,3.377,4.01,3.377,4.636c0,1.05,0.743,2.744,2.209,5.032c1.075,1.679,2.165,3.083,2.176,3.097l0.25,0.321l0.25-0.321
      c0.011-0.014,1.1-1.418,2.176-3.097c1.465-2.289,2.209-3.982,2.209-5.032C12.648,4.01,12.525,3.403,12.283,2.831z M8.013,6.226
      c-0.993,0-1.797-0.805-1.797-1.797c0-0.992,0.805-1.797,1.797-1.797s1.795,0.805,1.795,1.797C9.809,5.421,9.006,6.226,8.013,6.226z"
      fill="currentColor"/>
    <path
      d="M15.07,11.442c-0.402-0.371-0.973-0.701-1.693-0.98c-0.594-0.231-1.268-0.42-1.998-0.562
      c-0.111,0.185-0.229,0.373-0.35,0.564c0.781,0.139,1.5,0.331,2.125,0.573c1.26,0.49,1.982,1.131,1.982,1.759
      s-0.723,1.269-1.982,1.759C11.781,15.089,9.951,15.382,8,15.382s-3.782-0.293-5.153-0.826c-1.261-0.49-1.984-1.131-1.984-1.759
      s0.723-1.269,1.984-1.759c0.666-0.259,1.439-0.461,2.283-0.601c-0.122-0.193-0.238-0.382-0.35-0.566
      c-0.791,0.144-1.52,0.343-2.157,0.59c-0.72,0.28-1.29,0.61-1.693,0.98c-0.455,0.419-0.686,0.874-0.686,1.355
      c0,0.48,0.23,0.937,0.686,1.354c0.403,0.371,0.973,0.701,1.693,0.98C4.063,15.691,5.973,16,8,16c2.026,0,3.936-0.309,5.379-0.869
      c0.719-0.279,1.289-0.609,1.691-0.98c0.455-0.417,0.686-0.873,0.686-1.354C15.756,12.315,15.525,11.86,15.07,11.442z"
      fill="currentColor"/>
  </symbol>
</svg>
